<svg xmlns="http://www.w3.org/2000/svg" viewBox="0 0 96 96" role="img" aria-label="Mirror Mind">
  <defs>
    <radialGradient id="mm-bg" cx="50%" cy="40%" r="70%">
      <stop offset="0" stop-color="#17171b"/>
      <stop offset="1" stop-color="#09090c"/>
    </radialGradient>
  </defs>

  <!-- dark rounded tile -->
  <rect x="4" y="4" width="88" height="88" rx="18" fill="url(#mm-bg)" />

  <!-- lucide brain outline provided -->
  <g transform="translate(24 22) scale(2)">
    <path d="M12 18V5" fill="none" stroke="#f2f4f8" stroke-width="1.5" stroke-linecap="round" stroke-linejoin="round"/>
    <path d="M15 13a4.17 4.17 0 0 1-3-4 4.17 4.17 0 0 1-3 4" fill="none" stroke="#f2f4f8" stroke-width="1.5" stroke-linecap="round" stroke-linejoin="round"/>
    <path d="M17.598 6.5A3 3 0 1 0 12 5a3 3 0 1 0-5.598 1.5" fill="none" stroke="#f2f4f8" stroke-width="1.5" stroke-linecap="round" stroke-linejoin="round"/>
    <path d="M17.997 5.125a4 4 0 0 1 2.526 5.77" fill="none" stroke="#f2f4f8" stroke-width="1.5" stroke-linecap="round" stroke-linejoin="round"/>
    <path d="M18 18a4 4 0 0 0 2-7.464" fill="none" stroke="#f2f4f8" stroke-width="1.5" stroke-linecap="round" stroke-linejoin="round"/>
    <path d="M19.967 17.483A4 4 0 1 1 12 18a4 4 0 1 1-7.967-.517" fill="none" stroke="#f2f4f8" stroke-width="1.5" stroke-linecap="round" stroke-linejoin="round"/>
    <path d="M6 18a4 4 0 0 1-2-7.464" fill="none" stroke="#f2f4f8" stroke-width="1.5" stroke-linecap="round" stroke-linejoin="round"/>
    <path d="M6.003 5.125a4 4 0 0 0-2.526 5.77" fill="none" stroke="#f2f4f8" stroke-width="1.5" stroke-linecap="round" stroke-linejoin="round"/>
  </g>
</svg>
